<svg width="35" height="32" viewBox="0 0 35 32" fill="none" xmlns="http://www.w3.org/2000/svg">
<path d="M16.6891 29.2478C15.4386 28.3521 3.82679 18.2727 3.697 18.1625C3.18415 17.7047 2.86125 17.23 2.77261 16.7948C2.6808 16.3427 2.83592 15.9471 3.24747 15.5798C3.63052 15.2378 4.09904 15.057 4.60239 15.057C5.21654 15.057 5.84651 15.317 6.37202 15.7889L11.6366 20.3044C11.7284 20.3835 11.8487 20.4231 11.9658 20.4231C12.0893 20.4231 12.2096 20.3807 12.3014 20.2987C12.485 20.1348 12.485 19.8692 12.3046 19.7053L3.8996 11.9572C3.05752 11.2055 2.66181 10.0554 3.66217 9.16251C4.04522 8.82059 4.51375 8.63974 5.0171 8.63974C5.63124 8.63974 6.26122 8.89971 6.78673 9.37161L15.3848 16.8542C15.4766 16.9333 15.5969 16.9757 15.7172 16.9757C15.8375 16.9757 15.961 16.9333 16.0528 16.8513C16.2364 16.6874 16.2395 16.4218 16.0559 16.2551L5.72938 6.80584C5.25136 6.37915 4.96328 5.8677 4.91263 5.37037C4.86514 4.86456 5.06458 4.39549 5.49195 4.01401C5.875 3.6721 6.34353 3.49125 6.84688 3.49125C7.46102 3.49125 8.091 3.75122 8.61651 4.22029L19.1488 13.387C19.2406 13.4661 19.3609 13.5085 19.4812 13.5085C19.6015 13.5085 19.725 13.4661 19.8168 13.3842C20.0004 13.2203 20.0036 12.9546 19.8199 12.7879L12.1716 5.77162C11.6904 5.34211 11.4023 4.83348 11.3548 4.33615C11.3074 3.83034 11.5068 3.36127 11.9342 2.97979C12.3172 2.63788 12.7857 2.45703 13.2891 2.45703C13.9032 2.45703 14.5332 2.717 15.0587 3.1889C17.8635 5.64729 25.1858 12.0758 25.4328 12.3132C26.373 12.8925 26.5629 12.0165 26.6104 11.4485C26.6642 10.7873 25.8158 8.47868 26.3097 6.40176C27.1391 3.64101 29.5292 4.09313 29.583 4.11574C30.8936 4.66393 30.6435 5.4834 30.1781 7.1308L30.1307 7.45576C29.6431 9.60897 32.9925 15.9895 33.2394 16.467C34.5532 19.0328 36.0664 24.235 31.055 28.7081C25.5625 33.6108 18.7626 31.0987 16.6891 29.2478Z" fill="url(#paint0_radial_127_872)"/>
<path d="M23.736 32.0001C20.3677 32.0001 17.5027 30.5618 16.3725 29.5644C15.3563 28.824 8.94262 23.2969 3.7192 18.7729C3.5071 18.5892 3.38363 18.4846 3.37097 18.4705C2.77898 17.9421 2.41176 17.3911 2.30729 16.8711C2.18699 16.2806 2.39277 15.7465 2.91194 15.2803C3.3868 14.8564 3.96929 14.6332 4.60243 14.6332C5.34637 14.6332 6.09348 14.9383 6.70763 15.4894L11.9659 19.9992L3.55775 12.2511C2.58904 11.3864 2.10152 9.95374 3.32665 8.86301C3.80151 8.43915 4.384 8.21591 5.01714 8.21591C5.76108 8.21591 6.50819 8.5211 7.12233 9.07211L15.7141 16.549L5.39069 7.10257C4.83986 6.6109 4.50113 6.00902 4.44098 5.40996C4.38083 4.77134 4.62776 4.18641 5.15643 3.71452C5.63129 3.29066 6.21378 3.06742 6.84692 3.06742C7.58769 3.06742 8.3348 3.36978 8.95212 3.9208L19.4813 13.0847L11.8329 6.06836C11.2789 5.57385 10.9402 4.97197 10.8832 4.37291C10.823 3.73712 11.07 3.15219 11.5986 2.6803C12.0735 2.25644 12.656 2.0332 13.2891 2.0332C14.0331 2.0332 14.7802 2.33838 15.3943 2.8894L17.6768 4.8872C21.7447 8.44763 25.1447 11.4288 25.5088 11.7622C25.6861 11.8894 25.9171 11.9374 26.0153 11.895C26.0786 11.8668 26.1482 11.7368 26.1356 11.4627C26.1166 10.9823 26.0406 10.3861 25.9615 9.75594C25.8032 8.49001 25.6386 7.17887 25.8443 6.31419C26.2939 4.81373 27.1771 4.17794 27.8356 3.90384C28.741 3.53084 29.6179 3.66083 29.7856 3.73147C31.4318 4.42095 31.1057 5.57385 30.6562 7.17322L30.6467 7.21278L30.5961 7.54339C30.2668 8.99017 31.9573 12.9886 33.6478 16.2467L33.6731 16.2919C34.8033 18.4959 36.8388 24.1502 31.3938 29.0105C28.8898 31.24 26.1799 32.0001 23.736 32.0001ZM4.60243 15.4809C4.22888 15.4809 3.87432 15.6193 3.58307 15.8793C3.28233 16.1478 3.17786 16.4077 3.24118 16.7186C3.31082 17.0605 3.59257 17.4674 4.0326 17.863C4.03577 17.8658 4.1624 17.976 4.38083 18.1625C11.7949 24.5854 16.2712 28.403 16.9867 28.9173L17.0247 28.9483C18.7721 30.5082 25.265 33.2774 30.7195 28.4086C35.7435 23.9242 33.8536 18.6881 32.8057 16.6423L32.7836 16.5999C31.6946 14.5032 29.219 9.41685 29.659 7.38797L29.7318 6.96411C30.2193 5.23476 30.2478 4.87307 29.4216 4.51703C29.1778 4.47747 27.4304 4.28814 26.7624 6.512C26.5946 7.22126 26.7561 8.51827 26.8985 9.66269C26.9808 10.3098 27.0568 10.923 27.0758 11.4344C27.1075 12.2398 26.6801 12.5478 26.4205 12.6608C25.8918 12.8897 25.2618 12.6947 24.8693 12.4008L24.8281 12.3669C24.635 12.1804 20.0416 8.1594 17.0025 5.49756L14.7169 3.49411C13.9381 2.79615 12.9346 2.6803 12.2603 3.28218C11.931 3.57606 11.7823 3.9208 11.8171 4.30227C11.8551 4.7007 12.0957 5.11608 12.4977 5.47495L20.1619 12.4913C20.5228 12.819 20.5228 13.3559 20.1556 13.6837C19.8042 13.9974 19.1837 14.003 18.8228 13.6922L8.28415 4.52268C7.50539 3.82755 6.49869 3.71169 5.82756 4.31357C5.49833 4.60745 5.34954 4.95219 5.38436 5.33366C5.42551 5.73209 5.66611 6.1503 6.06499 6.50352L16.3947 15.9584C16.7588 16.2862 16.7556 16.8231 16.3884 17.1509C16.037 17.4646 15.4165 17.4702 15.0556 17.1594L6.45437 9.674C5.67561 8.97321 4.66891 8.86018 3.99778 9.46206C3.17786 10.1939 3.61473 11.101 4.23521 11.6577L12.6465 19.4115C13.0074 19.7393 13.0042 20.2733 12.637 20.5983C12.2824 20.9148 11.6683 20.9176 11.3074 20.6096L6.04283 16.0941C5.59963 15.6956 5.08995 15.4809 4.60243 15.4809Z" fill="#EDA600"/>
<path d="M24.6767 12.0391C22.9387 15.2067 23.1635 19.6403 25.772 23.1979C26.0664 23.6783 26.5698 23.4437 26.3134 22.9492C23.1635 16.9332 26.4653 12.5986 26.4653 12.5986L24.6767 12.0391Z" fill="#EDA600"/>
<path d="M17.8416 0.159766C18.7976 -0.0634677 19.817 -0.0436875 20.8078 0.162591C21.7924 0.374522 22.7769 0.820988 23.5082 1.55003C24.2236 2.27342 24.6637 3.15222 24.8124 4.07341C24.9517 4.98612 24.8219 5.92709 24.3376 6.707C24.2806 5.83102 24.1097 5.02568 23.8216 4.28252C23.6728 3.91234 23.4987 3.55913 23.2866 3.22569C23.0776 2.89508 22.8307 2.56729 22.568 2.29885C22.033 1.74783 21.308 1.31832 20.4944 0.984881C19.6777 0.640141 18.7881 0.385824 17.8416 0.159766Z" fill="#91C2DB"/>
<path d="M18.1042 2.83857C18.6329 2.53904 19.2946 2.47688 19.9182 2.57578C20.5482 2.67468 21.1497 2.95442 21.6245 3.34155C22.0962 3.73433 22.4318 4.22883 22.6407 4.74312C22.742 5.00026 22.7927 5.27153 22.8401 5.53432C22.856 5.80559 22.856 6.07686 22.8085 6.34813C22.5901 6.14186 22.4191 5.93558 22.2577 5.73495C22.0709 5.54563 21.9253 5.345 21.7575 5.16133C21.4282 4.79681 21.1085 4.46619 20.7634 4.17232C20.4089 3.88692 20.0353 3.63543 19.6016 3.41785C19.1711 3.19461 18.6867 3.00811 18.1042 2.83857Z" fill="#37A6DD"/>
<path d="M0.00605062 20.7422C0.452416 21.5221 0.917775 22.2455 1.45911 22.8841C1.99728 23.5227 2.61459 24.0653 3.33321 24.4185C3.68144 24.5908 4.09615 24.7406 4.50136 24.8536C4.90973 24.9695 5.33394 25.0486 5.77081 25.1023C6.64454 25.1984 7.5626 25.1814 8.53447 25.0486C7.78103 25.6335 6.77434 25.9444 5.74865 26.0122C4.71029 26.0744 3.65611 25.8737 2.71273 25.399C1.76302 24.9158 1.06656 24.1472 0.629695 23.3306C0.192828 22.5083 -0.041435 21.6238 0.00605062 20.7422Z" fill="#91C2DB"/>
<path d="M2.99745 20.4121C3.30452 20.8868 3.60843 21.2683 3.94083 21.6017C4.27006 21.9352 4.62462 22.2093 5.01084 22.4579C5.40338 22.6981 5.83392 22.9101 6.30245 23.122C6.53671 23.2294 6.7868 23.3141 7.03372 23.4385C7.29015 23.5374 7.54974 23.6419 7.82199 23.7917C7.53391 23.8878 7.2395 23.9443 6.93875 23.9867C6.64118 23.998 6.3341 24.0121 6.03019 23.9754C5.42238 23.9019 4.81456 23.7126 4.28272 23.382C3.76038 23.0457 3.32668 22.5795 3.08925 22.051C2.84866 21.5255 2.77901 20.9377 2.99745 20.4121Z" fill="#37A6DD"/>
<defs>
<radialGradient id="paint0_radial_127_872" cx="0" cy="0" r="1" gradientUnits="userSpaceOnUse" gradientTransform="translate(11.7873 9.62589) rotate(-41.7524) scale(27.3072 27.1319)">
<stop offset="0.3533" stop-color="#FFCA28"/>
<stop offset="0.8723" stop-color="#FFB300"/>
</radialGradient>
</defs>
</svg>
