<svg width="184" height="36" viewBox="0 0 184 36" fill="none" xmlns="http://www.w3.org/2000/svg">
<path d="M15.0938 35.2015L7.55776 35.1055C5.82976 35.1055 3.74976 35.1535 1.31776 35.2495L0.741758 32.6575C2.27776 32.6255 3.28576 32.4655 3.76576 32.1775C4.27776 31.8895 4.53376 31.4735 4.53376 30.9295L4.72576 5.20147C4.72576 4.62547 4.50176 4.19347 4.05376 3.90547C3.63776 3.61747 2.78976 3.47347 1.50976 3.47347L0.885758 0.881466C4.72576 0.977467 7.34976 1.02547 8.75776 1.02547C10.1978 1.02547 12.1338 0.977467 14.5658 0.881466L15.1418 3.47347C13.6058 3.50547 12.5818 3.66547 12.0698 3.95347C11.5898 4.24147 11.3498 4.65747 11.3498 5.20147V29.6335C11.3498 31.3295 12.1338 32.1775 13.7018 32.1775H18.2138C22.5338 32.1775 25.4778 29.8735 27.0458 25.2655L29.6378 25.7935C29.6378 26.3375 29.1738 28.0335 28.2458 30.8815C27.3178 33.6975 26.6298 35.1055 26.1818 35.1055L15.0938 35.2015ZM44.8939 5.20147V30.9295C44.8939 31.5055 45.1019 31.9375 45.5179 32.2255C45.9659 32.5135 46.8299 32.6575 48.1099 32.6575L48.7339 35.2495C44.8939 35.1535 42.2699 35.1055 40.8619 35.1055C39.4539 35.1055 37.5179 35.1535 35.0539 35.2495L34.4779 32.6575C36.0139 32.6255 37.0219 32.4655 37.5019 32.1775C38.0139 31.8895 38.2699 31.4735 38.2699 30.9295V5.20147C38.2699 4.62547 38.0459 4.19347 37.5979 3.90547C37.1819 3.61747 36.3339 3.47347 35.0539 3.47347L34.4299 0.881466C38.2699 0.977467 40.8939 1.02547 42.3019 1.02547C43.7419 1.02547 45.6779 0.977467 48.1099 0.881466L48.6859 3.47347C47.1499 3.50547 46.1259 3.66547 45.6139 3.95347C45.1339 4.24147 44.8939 4.65747 44.8939 5.20147ZM88.161 35.2975C87.521 35.1695 86.817 35.1055 86.049 35.1055C85.313 35.1055 84.705 35.1535 84.225 35.2495L63.921 9.47347V30.9295C63.921 31.5055 64.129 31.9375 64.545 32.2255C64.993 32.5135 65.857 32.6575 67.137 32.6575L67.761 35.2495C63.921 35.1535 61.553 35.1055 60.657 35.1055C59.761 35.1055 58.081 35.1535 55.617 35.2495L55.041 32.6575C57.793 32.5935 59.169 32.0175 59.169 30.9295V5.20147C59.169 4.04947 57.985 3.47347 55.617 3.47347L54.993 0.881466C58.833 0.977467 61.425 1.02547 62.769 1.02547C64.113 1.02547 65.201 0.977467 66.033 0.881466C66.033 1.26547 66.257 1.79347 66.705 2.46547C67.153 3.10547 67.521 3.66547 67.809 4.14547C68.129 4.59347 68.529 5.15347 69.009 5.82547C69.521 6.46547 69.953 7.02547 70.305 7.50547C70.689 7.98547 71.169 8.57747 71.745 9.28147C73.857 11.9375 75.137 13.5535 75.585 14.1295C76.065 14.7055 77.361 16.3855 79.473 19.1695C81.617 21.9215 82.929 23.5855 83.409 24.1615L83.361 5.20147C83.361 4.62547 83.137 4.19347 82.689 3.90547C82.273 3.61747 81.425 3.47347 80.145 3.47347L79.521 0.881466C83.361 0.977467 85.729 1.02547 86.625 1.02547C87.553 1.02547 89.233 0.977467 91.665 0.881466L92.241 3.47347C89.489 3.53747 88.113 4.11347 88.113 5.20147L88.161 35.2975ZM131.945 35.2495L125.849 35.1055C124.473 35.1055 123.353 35.1215 122.489 35.1535C121.273 33.6815 118.745 30.8175 114.905 26.5615C111.065 22.2735 108.937 20.1295 108.521 20.1295H108.473V30.9295C108.473 31.5055 108.681 31.9375 109.097 32.2255C109.545 32.5135 110.409 32.6575 111.689 32.6575L112.313 35.2495C108.473 35.1535 105.849 35.1055 104.441 35.1055C103.033 35.1055 101.097 35.1535 98.6333 35.2495L98.0573 32.6575C99.5933 32.6255 100.601 32.4655 101.081 32.1775C101.593 31.8895 101.849 31.4735 101.849 30.9295V5.20147C101.849 4.62547 101.625 4.19347 101.177 3.90547C100.761 3.61747 99.9133 3.47347 98.6333 3.47347L98.0093 0.881466C101.849 0.977467 104.473 1.02547 105.881 1.02547C107.321 1.02547 109.257 0.977467 111.689 0.881466L112.265 3.47347C110.729 3.50547 109.705 3.66547 109.193 3.95347C108.713 4.24147 108.473 4.65747 108.473 5.20147V16.6735C110.425 14.8175 112.825 12.3535 115.673 9.28147C118.521 6.20947 119.945 4.48147 119.945 4.09747C119.945 3.68147 118.889 3.47347 116.777 3.47347L116.153 0.881466C119.993 0.977467 122.617 1.02547 124.025 1.02547C125.433 1.02547 127.369 0.977467 129.833 0.881466L130.409 3.47347C127.145 3.56947 125.065 4.09747 124.169 5.05747L113.513 16.4335L126.905 30.9295C128.121 32.0815 129.593 32.6575 131.321 32.6575L131.945 35.2495ZM146.474 5.20147V30.9295C146.474 31.5055 146.682 31.9375 147.098 32.2255C147.546 32.5135 148.41 32.6575 149.69 32.6575L150.314 35.2495C146.474 35.1535 143.85 35.1055 142.442 35.1055C141.034 35.1055 139.098 35.1535 136.634 35.2495L136.058 32.6575C137.594 32.6255 138.602 32.4655 139.082 32.1775C139.594 31.8895 139.85 31.4735 139.85 30.9295V5.20147C139.85 4.62547 139.626 4.19347 139.178 3.90547C138.762 3.61747 137.914 3.47347 136.634 3.47347L136.01 0.881466C139.85 0.977467 142.474 1.02547 143.882 1.02547C145.322 1.02547 147.258 0.977467 149.69 0.881466L150.266 3.47347C148.73 3.50547 147.706 3.66547 147.194 3.95347C146.714 4.24147 146.474 4.65747 146.474 5.20147ZM178.269 10.9135L178.125 17.5375C178.125 19.3615 178.173 21.3295 178.269 23.4415L175.485 23.9695C175.485 22.1455 175.453 20.9775 175.389 20.4655C175.325 19.9535 175.165 19.6975 174.909 19.6975H167.037V30.9295C167.037 31.5375 167.325 31.9855 167.901 32.2735C168.509 32.5295 169.773 32.6575 171.693 32.6575L172.317 35.2495C168.477 35.1535 165.613 35.1055 163.725 35.1055C161.837 35.1055 159.661 35.1535 157.197 35.2495L156.621 32.6575C158.157 32.6255 159.165 32.4655 159.645 32.1775C160.157 31.8895 160.413 31.4735 160.413 30.9295V5.20147C160.413 4.62547 160.189 4.19347 159.741 3.90547C159.325 3.61747 158.477 3.47347 157.197 3.47347L156.573 0.881466C160.413 0.977467 162.653 1.02547 163.293 1.02547H183.213C183.597 2.11347 183.789 3.61747 183.789 5.53747C183.789 7.42547 183.709 9.04147 183.549 10.3855L181.437 10.0495C181.085 7.84147 180.493 6.25747 179.661 5.29747C178.861 4.33747 177.693 3.85747 176.157 3.85747H169.005C167.693 3.92147 167.037 4.00147 167.037 4.09747V15.9535H175.005C175.389 15.9535 175.581 14.4175 175.581 11.3455L178.269 10.9135Z" fill="white"/>
</svg>
