<svg width="40" height="40" viewBox="0 0 40 40" fill="none" xmlns="http://www.w3.org/2000/svg">
<g clip-path="url(#clip0_194_258)">
<path d="M19.9997 3.3335C16.7033 3.3335 13.481 4.31098 10.7402 6.14234C7.99936 7.97369 5.86315 10.5767 4.60169 13.6221C3.34023 16.6675 3.01017 20.0187 3.65326 23.2517C4.29635 26.4847 5.88369 29.4544 8.21457 31.7853C10.5454 34.1162 13.5152 35.7035 16.7482 36.3466C19.9812 36.9897 23.3323 36.6596 26.3777 35.3982C29.4232 34.1367 32.0261 32.0005 33.8575 29.2597C35.6889 26.5188 36.6663 23.2965 36.6663 20.0002C36.6663 17.8115 36.2353 15.6442 35.3977 13.6221C34.5601 11.6 33.3324 9.76269 31.7848 8.21505C30.2372 6.66741 28.3998 5.43975 26.3777 4.60217C24.3556 3.76459 22.1884 3.3335 19.9997 3.3335ZM24.9997 21.6668H21.6663V25.0002C21.6663 25.4422 21.4908 25.8661 21.1782 26.1787C20.8656 26.4912 20.4417 26.6668 19.9997 26.6668C19.5577 26.6668 19.1337 26.4912 18.8212 26.1787C18.5086 25.8661 18.333 25.4422 18.333 25.0002V21.6668H14.9997C14.5577 21.6668 14.1337 21.4912 13.8212 21.1787C13.5086 20.8661 13.333 20.4422 13.333 20.0002C13.333 19.5581 13.5086 19.1342 13.8212 18.8217C14.1337 18.5091 14.5577 18.3335 14.9997 18.3335H18.333V15.0002C18.333 14.5581 18.5086 14.1342 18.8212 13.8217C19.1337 13.5091 19.5577 13.3335 19.9997 13.3335C20.4417 13.3335 20.8656 13.5091 21.1782 13.8217C21.4908 14.1342 21.6663 14.5581 21.6663 15.0002V18.3335H24.9997C25.4417 18.3335 25.8656 18.5091 26.1782 18.8217C26.4908 19.1342 26.6663 19.5581 26.6663 20.0002C26.6663 20.4422 26.4908 20.8661 26.1782 21.1787C25.8656 21.4912 25.4417 21.6668 24.9997 21.6668Z" fill="#EA4C89"/>
</g>
<defs>
<clipPath id="clip0_194_258">
<rect width="40" height="40" fill="white"/>
</clipPath>
</defs>
</svg>
